<svg xmlns="http://www.w3.org/2000/svg" xmlns:xlink="http://www.w3.org/1999/xlink" viewBox="0 0 500 500" width="500" height="500" preserveAspectRatio="xMidYMid meet" style="width: 100%; height: 100%; transform: translate3d(0px, 0px, 0px); content-visibility: visible;" id="Success Check"><defs><clipPath id="__lottie_element_3"><rect width="500" height="500" x="0" y="0"/></clipPath></defs><g clip-path="url(#__lottie_element_3)"><g transform="matrix(1,0,0,1,117.49200439453125,117.49099731445312)" opacity="1" style="display: block;"><g opacity="1" transform="matrix(1,0,0,1,132.50799560546875,132.50900268554688)"><path fill="rgb(0,165,81)" fill-opacity="1" d=" M132.25799560546875,0 C132.25799560546875,73.04399871826172 73.04399871826172,132.25900268554688 -0.0010000000474974513,132.25900268554688 C-73.04499816894531,132.25900268554688 -132.25799560546875,73.04399871826172 -132.25799560546875,0 C-132.25799560546875,-73.04399871826172 -73.04499816894531,-132.25900268554688 -0.0010000000474974513,-132.25900268554688 C73.04399871826172,-132.25900268554688 132.25799560546875,-73.04399871826172 132.25799560546875,0z"/></g></g><g transform="matrix(1,0,0,1,132.8280029296875,157.8000030517578)" opacity="1" style="display: block;"><g opacity="1" transform="matrix(1,0,0,1,117.1719970703125,92.19999694824219)"><path stroke-linecap="round" stroke-linejoin="round" fill-opacity="0" stroke="rgb(255,255,255)" stroke-opacity="1" stroke-width="20" d=" M-67.1719970703125,0.9810000061988831 C-67.1719970703125,0.9810000061988831 -23.09000015258789,42.19900131225586 -23.09000015258789,42.19900131225586 C-23.09000015258789,42.19900131225586 15.470999717712402,6.14300012588501 42.185001373291016,-18.834999084472656"/></g></g></g></svg>